<?xml version="1.0" standalone="no"?>
<!DOCTYPE svg PUBLIC "-//W3C//DTD SVG 20010904//EN"
 "http://www.w3.org/TR/2001/REC-SVG-20010904/DTD/svg10.dtd">
<svg version="1.0" xmlns="http://www.w3.org/2000/svg"
 width="1995.000000pt" height="2143.000000pt" viewBox="0 0 1995.000000 2143.000000"
 preserveAspectRatio="xMidYMid meet">
<metadata>
Created by potrace 1.16, written by Peter Selinger 2001-2019
</metadata>
<g transform="translate(0.000000,2143.000000) scale(0.100000,-0.100000)"
fill="#069cbd" stroke="none">
<path d="M6570 21405 c-138 -39 -374 -130 -661 -255 -1482 -650 -2778 -1653
-3720 -2880 -809 -1053 -1404 -2214 -1754 -3425 -276 -955 -435 -2065 -435
-3051 -1 -1927 568 -3904 1592 -5533 282 -448 542 -804 836 -1146 236 -272
753 -803 992 -1016 247 -221 778 -622 1100 -831 412 -268 1087 -634 1115 -606
3 3 -106 72 -242 153 -296 177 -457 281 -658 425 -1101 790 -2010 1805 -2662
2975 -1049 1882 -1418 4031 -1058 6153 200 1175 622 2320 1208 3277 179 291
466 693 745 1043 447 558 977 1069 1597 1538 407 308 888 600 1463 888 l132
66 0 128 c0 424 38 848 101 1132 62 279 208 649 335 847 33 53 74 128 74 138
0 7 -5 6 -100 -20z"/>
<path d="M14300 18762 c0 -4 24 -20 53 -36 407 -228 990 -626 1372 -941 958
-787 1764 -1794 2335 -2920 706 -1392 1060 -2988 1002 -4512 -23 -587 -75
-1035 -183 -1576 -333 -1671 -1093 -3197 -2179 -4377 -576 -625 -1078 -1064
-1665 -1457 -337 -225 -577 -365 -972 -568 l-273 -140 0 -245 c0 -369 -23
-627 -80 -910 -70 -351 -205 -702 -380 -990 l-51 -85 25 -3 c92 -11 550 173
1166 468 441 212 667 340 1031 585 665 448 1301 995 1780 1530 1567 1749 2458
3848 2634 6205 85 1148 -9 2255 -286 3363 -379 1517 -1089 2942 -2012 4042
-420 500 -1034 1100 -1501 1465 -399 312 -845 606 -1311 865 -239 133 -505
258 -505 237z"/>
<path d="M9585 18074 c-22 -2 -119 -11 -215 -19 -1123 -98 -1927 -315 -2840
-766 -710 -350 -1358 -813 -1943 -1389 -362 -355 -654 -709 -950 -1152 -726
-1083 -1128 -2218 -1254 -3538 -22 -233 -26 -1084 -5 -1300 75 -788 225 -1438
485 -2100 794 -2022 2436 -3617 4475 -4349 1166 -418 2453 -542 3682 -355
1136 173 2279 629 3168 1264 461 329 930 742 1267 1115 387 428 753 940 1033
1446 483 874 797 1908 898 2954 21 226 30 810 15 1042 -68 1055 -306 2008
-711 2840 -387 796 -886 1508 -1455 2078 -616 618 -1412 1181 -2147 1521 -763
353 -1653 594 -2543 690 -142 15 -855 28 -960 18z m675 -784 c1539 -84 2955
-674 4125 -1720 155 -138 470 -460 606 -620 938 -1097 1484 -2381 1616 -3800
21 -232 24 -900 5 -1120 -31 -350 -81 -685 -147 -981 -499 -2234 -2121 -4057
-4320 -4852 -523 -190 -1065 -311 -1665 -374 -242 -25 -974 -25 -1220 0 -1108
114 -2072 447 -3016 1042 -391 247 -710 502 -1077 865 -759 748 -1246 1498
-1620 2500 -308 822 -455 1781 -407 2650 61 1097 354 2092 896 3037 410 715
970 1368 1619 1888 528 423 1135 780 1730 1017 870 347 1928 520 2875 468z"/>
<path d="M9700 15384 c-222 -33 -499 -118 -671 -204 -86 -44 -207 -120 -282
-177 -93 -71 -279 -256 -361 -358 -90 -113 -2741 -3826 -2848 -3990 -222 -338
-328 -692 -328 -1090 0 -371 104 -754 287 -1059 106 -177 280 -375 448 -511
94 -76 2517 -1810 2690 -1925 563 -375 1086 -466 1711 -300 423 112 752 333
1047 703 41 50 529 730 1085 1509 556 779 1115 1560 1243 1735 375 514 600
865 690 1073 102 237 159 559 145 824 -28 537 -235 1009 -597 1361 -127 123
-219 195 -514 400 -373 259 -1221 866 -2080 1488 -250 182 -370 258 -518 332
-195 97 -395 158 -618 190 -130 18 -402 18 -529 -1z m442 -630 c243 -33 446
-91 777 -222 l172 -68 -79 -120 c-107 -162 -268 -390 -637 -899 -171 -236
-405 -563 -520 -725 -115 -162 -257 -360 -315 -440 -58 -80 -141 -196 -184
-257 -43 -62 -81 -113 -85 -113 -10 0 -154 100 -553 386 -178 127 -386 275
-463 329 -216 153 -365 265 -365 277 0 5 199 292 443 636 244 345 470 665 502
712 115 164 244 277 425 374 104 55 268 111 381 130 115 19 363 19 501 0z
m1375 -596 c295 -195 1232 -861 1355 -964 l28 -22 -176 -253 c-451 -647 -1584
-2231 -1633 -2282 -16 -17 -25 -13 -182 96 -90 62 -326 230 -524 373 -198 143
-447 321 -554 394 -106 74 -211 150 -232 170 l-40 35 89 130 c48 72 124 180
168 240 295 404 1444 2012 1509 2113 22 34 43 62 47 62 3 0 69 -41 145 -92z
m1753 -1276 c149 -155 410 -533 511 -737 134 -274 195 -560 169 -798 -20 -194
-79 -366 -168 -495 -190 -273 -964 -1357 -1000 -1400 l-28 -34 -219 154 c-306
214 -1123 806 -1158 838 -10 9 1800 2540 1816 2540 7 0 41 -31 77 -68z m-5389
-645 c46 -29 170 -115 274 -192 182 -133 446 -321 1050 -750 154 -109 467
-334 695 -499 539 -389 749 -540 1000 -716 308 -215 1262 -900 1284 -921 19
-18 18 -21 -70 -151 -50 -73 -193 -276 -320 -451 -249 -345 -353 -492 -514
-728 -151 -221 -260 -358 -380 -479 -219 -220 -424 -339 -707 -411 -341 -86
-718 -47 -1024 106 -64 33 -424 283 -1203 839 -1006 718 -1119 802 -1198 884
-193 203 -331 482 -384 777 -28 155 -24 414 9 565 30 143 84 287 148 405 42
75 846 1215 1117 1583 43 59 90 126 103 149 13 24 27 43 30 43 3 0 44 -24 90
-53z"/>
<path d="M11642 13171 c-31 -43 -86 -119 -122 -169 -36 -50 -71 -92 -79 -92
-8 0 -64 16 -124 36 -151 48 -243 54 -373 24 -274 -63 -475 -254 -546 -517
-29 -109 -29 -288 0 -395 56 -207 182 -358 377 -453 114 -56 194 -75 321 -75
275 0 525 149 654 392 145 272 105 573 -111 830 -23 26 -29 42 -24 58 4 12 49
78 101 147 53 70 104 144 115 166 20 37 20 39 2 53 -39 32 -108 74 -120 74 -7
0 -39 -35 -71 -79z m-379 -370 c37 -10 71 -21 74 -25 11 -11 -16 -56 -101
-170 -100 -133 -134 -195 -114 -208 97 -64 129 -79 143 -68 9 7 55 72 104 144
49 72 100 142 115 155 l26 24 35 -39 c74 -80 125 -228 125 -359 0 -189 -91
-362 -247 -469 -232 -158 -532 -128 -733 74 -191 191 -213 490 -54 723 142
207 374 288 627 218z"/>
</g>
</svg>
